<?xml version="1.0" standalone="no"?>
<!DOCTYPE svg PUBLIC "-//W3C//DTD SVG 1.1//EN" "http://www.w3.org/Graphics/SVG/1.1/DTD/svg11.dtd" >
<!--
2013-9-30: Created.
-->
<svg>
<metadata>
Created by iconfont
</metadata>
<defs>

<font id="iconfont" horiz-adv-x="1024" >
  <font-face
    font-family="iconfont"
    font-weight="500"
    font-stretch="normal"
    units-per-em="1024"
    ascent="896"
    descent="-128"
  />
    <missing-glyph />
    
    <glyph glyph-name="x" unicode="x" horiz-adv-x="1001"
d="M281 543q-27 -1 -53 -1h-83q-18 0 -36.5 -6t-32.5 -18.5t-23 -32t-9 -45.5v-76h912v41q0 16 -0.5 30t-0.5 18q0 13 -5 29t-17 29.5t-31.5 22.5t-49.5 9h-133v-97h-438v97zM955 310v-52q0 -23 0.5 -52t0.5 -58t-10.5 -47.5t-26 -30t-33 -16t-31.5 -4.5q-14 -1 -29.5 -0.5
t-29.5 0.5h-32l-45 128h-439l-44 -128h-29h-34q-20 0 -45 1q-25 0 -41 9.5t-25.5 23t-13.5 29.5t-4 30v167h911zM163 247q-12 0 -21 -8.5t-9 -21.5t9 -21.5t21 -8.5q13 0 22 8.5t9 21.5t-9 21.5t-22 8.5zM316 123q-8 -26 -14 -48q-5 -19 -10.5 -37t-7.5 -25t-3 -15t1 -14.5
t9.5 -10.5t21.5 -4h37h67h81h80h64h36q23 0 34 12t2 38q-5 13 -9.5 30.5t-9.5 34.5q-5 19 -11 39h-368zM336 498v228q0 11 2.5 23t10 21.5t20.5 15.5t34 6h188q31 0 51.5 -14.5t20.5 -52.5v-227h-327z" />
    

    
    <glyph glyph-name="tubiao" unicode="&#58914;" d="M864.60032 662.63168 673.7408 662.63168 673.7408 700.80256c0 42.16064-34.1824 76.34304-76.34432 76.34304L406.53952 777.1456c-42.16064 0-76.34432-34.18368-76.34432-76.34304l0-38.17216L139.33696 662.6304l0-38.17216 39.328 0 38.208-725.26208c0-42.16192 34.18368-76.3456 76.34432-76.3456l419.88864 0c42.16064 0 76.34432 34.1824 76.34432 76.3456l37.53728 725.26208 37.6128 0L864.60032 662.63168zM368.36736 700.80256c0 21.06112 17.14688 38.17088 38.17216 38.17088l190.85824 0c21.06112 0 38.17216-17.10976 38.17216-38.17088l0-38.17216L368.36736 662.6304 368.36736 700.80256zM751.35232-98.82752l-0.07552-0.97024 0-1.0048c0-21.02528-17.10976-38.1696-38.17088-38.1696L293.21728-138.97216c-21.02528 0-38.17216 17.1456-38.17216 38.1696l0 1.0048-0.0384 1.00736-38.13376 723.24992 571.904 0L751.35232-98.82752zM482.88384 548.11648l38.1696 0 0-610.74688-38.1696 0 0 610.74688ZM407.39584-61.40032 368.32896 548.1536 330.2336 545.73056 369.2992-63.82464ZM674.00192 546.92352 635.90528 549.30816 597.39776-61.43744 635.4944-63.82464Z"  horiz-adv-x="1024" />

    
    <glyph glyph-name="fanhuijiantou" unicode="&#58911;" d="M961.066669 364.463174 289.800315 364.463174 594.427314 669.091196 515.77907 747.739441 68.054979 300.017396 515.77907-147.707718 594.427314-69.056404 288.823058 236.549899 961.066669 236.549899Z"  horiz-adv-x="1024" />

    
    <glyph glyph-name="01" unicode="&#58909;" d="M512 875.712955c-271.566022 0-491.711931-220.146932-491.711931-491.711931s220.145909-491.711931 491.711931-491.711931c271.564999 0 491.711931 220.146932 491.711931 491.711931S783.564999 875.712955 512 875.712955zM511.823991-80.434681c-256.598122 0-464.612737 207.934796-464.612737 464.435705S255.226892 848.436728 511.823991 848.436728s464.611713-207.934796 464.611713-464.435705S768.422114-80.434681 511.823991-80.434681zM769.868045 504.260991l-68.760037 0.931209 0 69.049632c0 10.951423-8.877181 19.832697-19.830651 19.832697l-429.942099 0c-10.9504 0-19.831674-8.881274-19.831674-19.832697l0-328.590783c0-10.951423 8.881274-19.832697 19.831674-19.832697l57.633628 0 0-36.323277c0-10.952446 8.881274-19.829628 19.833721-19.829628L769.868045 169.665447c10.954493 0 19.832697 8.876158 19.832697 19.829628L789.700743 485.358479C789.700743 496.311948 780.822538 504.260991 769.868045 504.260991zM308.968887 485.358479 308.968887 263.389038l-13.313214 0c-10.952446 0-19.829628 8.877181-19.829628 19.829628L275.826046 529.923464c0 10.9504 8.876158 19.829628 19.829628 19.829628l346.887498 0c10.952446 0 19.832697-8.879228 19.832697-19.829628l0-24.732288L328.802608 505.191176C317.849138 505.191176 308.968887 496.311948 308.968887 485.358479zM756.323565 379.439124c0-10.956539-8.880251-19.833721-19.832697-19.833721L362.647437 359.605404c-10.952446 0-19.833721 8.877181-19.833721 19.833721l0 38.640042c0 10.951423 8.881274 19.832697 19.833721 19.832697l373.84343 0c10.952446 0 19.832697-8.881274 19.832697-19.832697L756.323565 379.439124z"  horiz-adv-x="1024" />

    
    <glyph glyph-name="rixiane" unicode="&#59010;" d="M788.461007 1.599683 235.537969 1.599683c-58.07365 0-105.318674 47.246047-105.318674 105.319697L130.219295 661.081643c0 58.072627 47.245024 105.318674 105.318674 105.318674l552.923038 0c58.07365 0 105.319697-47.245024 105.319697-105.318674l0-554.162262C893.780705 48.845731 846.534658 1.599683 788.461007 1.599683zM235.537969 723.316056c-34.317597 0-62.234413-27.91784-62.234413-62.23339l0-554.162262c0-34.31555 27.916816-62.234413 62.234413-62.234413l552.923038 0c34.317597 0 62.23339 27.918863 62.23339 62.234413L850.694397 661.081643c0 34.31555-27.915793 62.23339-62.23339 62.23339L235.537969 723.315032zM379.656321 481.674577c0 25.898857-16.302291 48.049343-39.179324 56.760748l0 78.965469c0.149403 1.023306 0.252757 2.061962 0.252757 3.128247 0 11.896958-9.644661 21.542642-21.542642 21.542642s-21.542642-9.644661-21.542642-21.542642l-0.252757 0 0-82.093716c-22.877033-8.712429-39.179324-30.862915-39.179324-56.760748s16.302291-48.048319 39.179324-56.759725l0-277.438777 0.252757 0c0-11.897981 9.644661-21.542642 21.542642-21.542642s21.542642 9.644661 21.542642 21.542642c0 1.066285-0.103354 2.103918-0.252757 3.128247L340.476997 424.913828C363.355053 433.626257 379.656321 455.77572 379.656321 481.674577zM318.935378 508.885312c15.004739 0 27.210735-12.20702 27.210735-27.211758 0-15.003715-12.20702-27.209712-27.210735-27.209712-15.004739 0-27.210735 12.205996-27.210735 27.209712C291.724643 496.679315 303.930639 508.885312 318.935378 508.885312zM766.016833 481.674577c0 25.898857-16.303314 48.049343-39.177278 56.760748l0 78.965469c0.149403 1.023306 0.252757 2.061962 0.252757 3.128247 0 11.896958-9.644661 21.542642-21.542642 21.542642s-21.542642-9.644661-21.542642-21.542642l-0.252757 0 0-82.093716c-22.87908-8.712429-39.181371-30.862915-39.181371-56.760748s16.302291-48.048319 39.181371-56.759725l0-277.438777 0.252757 0c0-11.897981 9.644661-21.542642 21.542642-21.542642s21.542642 9.644661 21.542642 21.542642c0 1.066285-0.104377 2.103918-0.252757 3.128247L726.839555 424.913828C749.714542 433.626257 766.016833 455.77572 766.016833 481.674577zM705.296913 508.885312c15.001669 0 27.208689-12.20702 27.208689-27.211758 0-15.003715-12.20702-27.209712-27.208689-27.209712-15.006785 0-27.212782 12.205996-27.212782 27.209712C678.085154 496.679315 690.290127 508.885312 705.296913 508.885312zM533.661857 343.086172 533.661857 617.400794c0.149403 1.023306 0.251733 2.061962 0.251733 3.128247 0 11.896958-9.644661 21.542642-21.542642 21.542642s-21.542642-9.644661-21.542642-21.542642l-0.252757 0 0-277.441846c-22.87908-8.711406-39.181371-30.861892-39.181371-56.758702 0-25.900903 16.301268-48.049343 39.181371-56.759725l0-82.093716 0.252757 0c0-11.897981 9.644661-21.542642 21.542642-21.542642s21.542642 9.644661 21.542642 21.542642c0 1.066285-0.103354 2.103918-0.251733 3.128247L533.661857 229.568768c22.874987 8.710382 39.175231 30.858822 39.175231 56.759725C572.837088 312.22428 556.535821 334.375789 533.661857 343.086172zM484.90541 286.328493c0 15.001669 12.205996 27.208689 27.213805 27.208689 15.001669 0 27.208689-12.20702 27.208689-27.208689 0-15.006785-12.20702-27.213805-27.208689-27.213805C497.111406 259.114688 484.90541 271.321708 484.90541 286.328493z"  horiz-adv-x="1024" />

    
    <glyph glyph-name="icon0201" unicode="&#58898;" d="M565.768089 570.05344l-62.358233-124.719536L441.04753 570.05344l-62.356187 0 69.289086-152.432715-69.289086 0 0-55.43045 97.002264 0 0-13.858636 0-41.571814-97.002264 0 0-55.43045 97.002264 0 0-55.434543 55.429427 0 0 55.434543 97.006358 0 0 55.43045-97.006358 0L531.123035 362.189252l41.575908 0 55.43045 0 0 55.43045-55.43045 0L628.129392 570.05344 565.768089 570.05344zM565.768089 570.05344M496.47798 777.919674c-218.118739 0-394.942981-176.824241-394.942981-394.944004 0-218.119763 176.824241-394.944004 394.942981-394.944004 218.120786 0 394.945027 176.824241 394.945027 394.944004C891.423007 601.095433 714.598766 777.919674 496.47798 777.919674L496.47798 777.919674zM496.47798 43.462117c-187.507558 0-339.512531 152.004973-339.512531 339.513554 0 187.508581 152.004973 339.513554 339.512531 339.513554 187.509604 0 339.514577-152.004973 339.514577-339.513554C835.992557 195.467089 683.987584 43.462117 496.47798 43.462117L496.47798 43.462117zM496.47798 43.462117"  horiz-adv-x="1024" />

    
    <glyph glyph-name="gengduo1" unicode="&#58934;" d="M512 641.142c53.257 0 96.428 43.173 96.428 96.428 0 53.257-43.173 96.428-96.428 96.428-53.257 0-96.428-43.173-96.428-96.428 0-53.257 43.173-96.428 96.428-96.428M512 287.572c53.257 0 96.428 43.173 96.428 96.428s-43.173 96.428-96.428 96.428c-53.257 0-96.428-43.173-96.428-96.428 0-53.257 43.173-96.428 96.428-96.428M512-66c53.257 0 96.428 43.173 96.428 96.428s-43.173 96.428-96.428 96.428c-53.257 0-96.428-43.173-96.428-96.428 0-53.257 43.173-96.428 96.428-96.428z"  horiz-adv-x="1024" />

    
    <glyph glyph-name="icon" unicode="&#58887;" d="M64.337819 702.824349l719.427236 0 0-62.930261-719.427236 0 0 62.930261ZM63.79649 511.312594l895.059326 0 0-62.930261-895.059326 0 0 62.930261ZM63.79649 317.873953l505.271762 0 0-62.930261-505.271762 0 0 62.930261ZM63.79649 128.104889l719.426213 0 0-62.930261-719.426213 0 0 62.930261Z"  horiz-adv-x="1024" />

    
    <glyph glyph-name="geren" unicode="&#59185;" d="M586.945923 382.418992c55.067176 27.962865 92.91211 85.125773 92.91211 150.998039 0 93.338828-75.937506 169.276335-169.277358 169.276335s-169.275311-75.937506-169.275311-169.276335c0-65.872267 37.844933-123.034151 92.911086-150.998039-95.652524-32.016181-164.778904-122.45496-164.778904-228.743728 0-11.31572 9.17394-20.491707 20.491707-20.491707s20.491707 9.174963 20.491707 20.491707c0 110.36869 89.791026 200.160739 200.160739 200.160739S710.741413 264.043954 710.741413 153.675264c0-11.31572 9.17394-20.491707 20.491707-20.491707s20.491707 9.174963 20.491707 20.491707C751.723803 259.964032 682.598446 350.401788 586.945923 382.418992zM382.287753 533.417031c0 70.742181 57.552787 128.293945 128.292921 128.293945 70.742181 0 128.293945-57.552787 128.293945-128.293945 0-70.741157-57.552787-128.292921-128.293945-128.292921C439.84054 405.123087 382.287753 462.675874 382.287753 533.417031zM827.871087 699.872111C743.498468 784.242683 631.320573 830.709995 512 830.709995S280.500509 784.243707 196.128913 699.872111C111.756293 615.498468 65.291029 503.321596 65.291029 384.001023s46.465265-231.499491 130.837884-315.872111 196.550515-130.837884 315.871087-130.837884 231.498468 46.465265 315.871087 130.837884S958.708971 264.680451 958.708971 384.001023 912.243707 615.499491 827.871087 699.872111zM512-21.726581c-223.718271 0-405.726581 182.007287-405.726581 405.727605 0 223.718271 182.00831 405.726581 405.726581 405.726581s405.726581-182.007287 405.726581-405.726581C917.726581 160.280706 735.718271-21.726581 512-21.726581z"  horiz-adv-x="1024" />

    
    <glyph glyph-name="tongzhi" unicode="&#58894;" d="M238.933333 622.933333 0 622.933333l0-477.866667 238.933333 0 443.733333-238.933333L682.666667 861.866667 238.933333 622.933333 238.933333 622.933333zM68.266667 554.666667l170.666667 0 0-341.333333L68.266667 213.333333 68.266667 554.666667zM614.4 18.773333l-307.2 163.84L307.2 581.973333l307.2 163.84L614.4 18.773333zM805.546667 237.226667c-6.826667 6.826667-13.653333 6.826667-20.48 6.826667-10.24 0-17.066667-3.413333-23.893333-10.24l0-3.413333c-10.24-13.653333-10.24-34.133333 3.413333-47.786667l157.013333-136.533333c6.826667-6.826667 13.653333-6.826667 20.48-6.826667 10.24 0 17.066667 3.413333 23.893333 10.24l0 3.413333c10.24 13.653333 10.24 34.133333-3.413333 47.786667L805.546667 237.226667zM785.066667 554.666667c6.826667 0 17.066667 3.413333 20.48 6.826667l157.013333 133.12c13.653333 13.653333 17.066667 34.133333 3.413333 47.786667-6.826667 6.826667-17.066667 10.24-27.306667 10.24-6.826667 0-17.066667-3.413333-20.48-6.826667l-157.013333-133.12c-13.653333-13.653333-17.066667-34.133333-3.413333-47.786667C768 558.08 774.826667 554.666667 785.066667 554.666667zM1024 384c0 17.066667-13.653333 34.133333-34.133333 34.133333L785.066667 418.133333c-17.066667 0-34.133333-13.653333-34.133333-34.133333L750.933333 384c0-17.066667 13.653333-34.133333 34.133333-34.133333L989.866667 349.866667C1010.346667 349.866667 1024 363.52 1024 384L1024 384z"  horiz-adv-x="1024" />

    
    <glyph glyph-name="zaixiankefu" unicode="&#58915;" d="M512.000512-65.609021c-120.095215 0-233.002728 46.766117-317.922816 131.687228C109.156584 150.997272 62.389444 263.904785 62.389444 384c0 120.095215 46.76714 233.001705 131.688251 317.921793C278.997784 786.840858 391.905296 833.609021 512.000512 833.609021c120.095215 0 233.001705-46.768163 317.922816-131.687228 84.919065-84.920088 131.687228-197.826578 131.687228-317.921793 0-120.095215-46.76714-233.002728-131.687228-317.922816C745.00324-18.842905 632.095727-65.609021 512.000512-65.609021zM512.000512 826.965717c-244.252956 0-442.967764-198.713784-442.967764-442.965717 0-244.252956 198.714807-442.966741 442.967764-442.966741 244.251933 0 442.966741 198.713784 442.966741 442.966741C954.967252 628.251933 756.252445 826.965717 512.000512 826.965717zM348.744287 373.021971c-0.935302 37.146015-40.128953 62.244646-74.616418 48.461735-16.340153-6.529717-29.031197-20.033265-33.011858-37.395702-1.403976-6.122441-1.245364-12.310374-1.245364-18.522865 0-34.513048 0-69.025073 0-103.538121 0-31.743982 28.707832-56.423057 60.105936-52.874231 28.956495 3.272533 48.767703 26.381857 48.767703 55.17053 0 34.972513 0 69.944002 0 104.915491C348.744287 370.500545 348.744287 371.761258 348.744287 373.021971c0 19.277042-29.893844 19.277042-29.893844 0 0-32.982182 0-65.963341 0-98.946546 0-4.317329 0-8.632611 0-12.948917 0-10.133801-7.153934-18.419512-17.428951-21.502733-11.805884-3.542686-23.77038 2.075265-29.457916 12.115945-2.324952 4.104481-2.199085 8.785084-2.199085 14.786775 0 31.153534 0 62.309114 0 93.463672 0 4.016477 0 8.032954 0 12.048407 0 6.891967 2.191922 11.871375 7.181563 16.805758 7.085372 7.005554 18.052145 7.92653 27.921933 4.480035 8.375761-2.924609 13.773701-12.013615 13.983479-20.302395C319.334467 353.779721 349.229335 353.732649 348.744287 373.021971zM784.127306 373.021971c-0.935302 37.146015-40.128953 62.244646-74.616418 48.461735-16.340153-6.529717-29.030174-20.033265-33.011858-37.395702-1.402953-6.122441-1.245364-12.310374-1.245364-18.522865 0-34.513048 0-69.025073 0-103.538121 0-31.743982 28.707832-56.423057 60.104913-52.874231 28.957519 3.272533 48.767703 26.381857 48.767703 55.17053 0 34.972513 0 69.944002 0 104.915491C784.127306 370.500545 784.127306 371.761258 784.127306 373.021971c0 19.277042-29.893844 19.277042-29.893844 0 0-32.982182 0-65.963341 0-98.946546 0-4.317329 0-8.632611 0-12.948917 0-10.133801-7.153934-18.419512-17.427928-21.502733-11.805884-3.542686-23.77038 2.075265-29.457916 12.115945-2.324952 4.104481-2.199085 8.785084-2.199085 14.786775 0 31.153534 0 62.309114 0 93.463672 0 4.016477 0 8.032954 0 12.048407 0 6.891967 2.191922 11.871375 7.181563 16.805758 7.086395 7.005554 18.052145 7.92653 27.921933 4.480035 8.375761-2.924609 13.773701-12.013615 13.982456-20.302395C754.717486 353.779721 784.612353 353.732649 784.127306 373.021971zM269.764492 380.102227c0.206708 57.767682 20.959358 114.374934 58.497299 157.920706 38.033221 44.12087 89.661066 72.372308 147.252739 81.682347 57.060577 9.224082 117.456109-4.233418 166.706813-35.302017 47.559179-30.002314 83.72589-77.553307 100.751658-131.052778 7.772011-24.424272 11.169387-47.838541 11.260461-73.248258 0.068562-19.273972 29.962405-19.282159 29.893844 0-0.223081 62.513776-21.786189 122.186853-60.566424 171.033351-37.245276 46.914496-91.185792 80.261998-149.369959 93.942579-61.4567 14.45113-126.462227 6.447852-183.063339-21.140483-53.496401-26.073842-97.711416-71.152527-123.736139-124.545574-18.0941-37.125549-27.373441-78.009701-27.520797-119.289873C239.802086 360.821091 269.69593 360.828254 269.764492 380.102227L269.764492 380.102227z"  horiz-adv-x="1024" />

    
    <glyph glyph-name="qiugoudating" unicode="&#59055;" d="M435.000302 112.149499c-2.989077 4.337795-6.495948 8.511861-10.510378 12.531408-8.010441 8.007371-17.023722 14.018272-27.037796 18.034748-10.683317 4.0175-21.694091 6.025227-33.033347 6.025227l-0.030699 0.032746c-2.671852-0.024559-5.51255-0.195451-8.522094-0.5137-3.01159-0.322341-5.853311-0.653893-8.524141-0.995677-2.668783-0.339738-5.339612-1.01512-8.007371-2.015913-2.671852-1.00591-5.344728-1.838881-8.013511-2.496867-3.353374-1.328251-6.693446-2.991124-10.026354-4.998851l-8.012488-6.027274c-3.331885-2.00568-6.331195-4.347005-9.003048-7.014764-4.012384-4.0175-7.517207-8.193613-10.510378-12.528338-2.992147-4.335748-5.483898-8.840342-7.492648-13.519921-4.019547-10.701736-6.02625-21.552875-6.02625-32.55137 0-11.002588 2.006703-21.506826 6.02625-31.526017 4.01443-9.360182 10.026354-18.373463 18.033725-27.042913 8.009418-7.348362 17.022699-13.359262 27.04189-18.038842 9.996678-4.015454 21.008476-6.021134 33.035394-6.021134 11.360745 0 22.212908 2.166339 32.549324 6.503111 10.338463 4.333702 19.509333 10.177803 27.52182 17.524119 8.010441 8.673543 14.024411 17.685801 18.038842 27.043936 4.679579 9.991562 7.014764 20.502963 7.014764 31.527041 0 11.019984-2.336208 21.872147-7.014764 32.55137C440.491363 103.308133 437.991426 107.814774 435.000302 112.149499zM801.974277 122.65783c-7.346315 8.009418-16.358573 14.024411-27.042913 18.038842-5.338588 2.006703-10.846022 3.51301-16.531512 4.514827-5.680373 1.006933-11.187807 1.50733-16.531512 1.50733l0.034792-0.034792c-3.998057 0.021489-7.830339-0.145309-11.504008-0.509606-3.673669-0.363274-7.346315-1.038656-11.017938-2.02103-3.679809-0.980327-7.18054-2.14792-10.512425-3.490497-4.678556-2.009773-9.356089-4.507664-14.031575-7.496741-4.680603-2.987031-8.680706-6.492878-12.012591-10.506285-8.010441-8.013511-14.024411-16.696264-18.039865-26.050306-2.671852-5.340635-4.503571-10.679223-5.513574-16.018835-1.000793-5.339612-1.50733-10.679223-1.50733-16.018835 0-11.342326 2.341325-22.020526 7.019881-32.039717 4.01443-9.355065 10.027377-18.365276 18.039865-27.039843 6.685259-6.662747 15.365966-12.335956 26.044166-17.013489 10.019191-4.681626 21.029966-7.014764 33.034371-7.014764 12.003382 0 23.01518 2.333138 33.034371 7.014764 10.679223 3.994987 19.691481 9.662057 27.037796 17.013489 8.012488 8.674567 14.359033 17.685801 19.032472 27.039843 2.006703 4.656043 3.514033 9.827833 4.520967 15.508205 0.998747 5.681396 1.50426 11.192923 1.50426 16.531512 0 11.344373-2.01182 22.021549-6.02625 32.03767C816.32717 105.963613 809.984718 114.645342 801.974277 122.65783zM563.059909 576.754049c-40.150442 0-72.801073-32.670074-72.801073-72.820516s32.649608-72.810283 72.801073-72.810283c40.150442 0 72.820516 32.659841 72.820516 72.810283S603.211375 576.754049 563.059909 576.754049zM954.129676 632.304226c-2.006703 3.332908-4.680603 6.331195-8.012488 9.004071-3.332908 2.665713-7.333012 5.006014-12.012591 7.013741-9.336646 4.678556-22.681582 7.019881-40.049135 7.019881l-0.062422-0.010233-58.70503 0 0 0.004093L699.41239 655.335778 309.044612 655.335778l-35.809577 0-4.997827 34.057677-4.00522 26.049283 0 4.997827c-1.342578 7.348362-2.347464 12.354376-3.00852 15.028275l-4.999874 16.016789c-1.324158 5.339612-3.994987 11.011798-8.009418 17.016559-2.673899 2.667759-5.51255 5.006014-8.522094 7.013741-3.01159 2.00875-6.184863 4.015454-9.517771 6.02625-7.325849 3.331885-16.996093 4.997827-29.02301 4.997827l-92.113931 0c-6.686283 0-12.697183-1.004887-18.036795-3.01159s-10.345626-4.680603-15.025205-8.012488c-8.012488-8.005324-12.013615-18.023492-12.013615-30.051433-0.005117-2.671852 0.168846-5.672186 0.509606-9.003048 0.340761-3.333932 0.847298-6.674003 1.506307-10.027377 0.661056-3.355421 1.826602-6.696516 3.492544-10.029424 1.664919-3.331885 3.173273-7.005554 4.514827-11.019984 4.679579-6.002714 10.018168-11.343349 16.018835-16.017812 5.343705-4.019547 12.69002-6.02625 22.044062-6.02625l68.082608 0 39.056528-201.236234 15.025205-77.086679 13.008268-69.075215 10.029424-51.070142 4.997827-26.050306c1.344624-6.655584 3.682879-16.33606 7.015787-29.02301 2.009773-5.361101 4.178159-10.372232 6.503111-15.024182 2.326998-4.656043 4.825912-8.994861 7.496741-13.008268 5.339612-8.67252 12.017708-15.677051 20.026102-21.017686 2.648316-2.00875 5.487991-3.515057 8.518001-4.51892 3.037173-1.003863 6.377244-1.836835 10.027377-2.49789 3.657296-0.663102 7.488555-0.995677 11.504008-0.995677l475.588719 0c17.364483 0 28.717042 4.339842 34.057677 13.011338 6.003737 8.66945 9.004071 19.017122 9.004071 31.041994 0 24.696472-14.686491 37.040614-44.055378 37.040614L351.377766 253.830335l-14.033621 80.099293 476.580303 0c17.347087 0 32.031531 4.674463 44.053332 14.028505 6.028297 4.656043 11.539824 11.160177 16.536628 19.514449 4.994758 8.348132 9.505491 18.198477 13.519921 29.537733 2.006703 6.003737 7.348362 21.693068 16.018835 47.064922l21.015639 59.080583 19.030425 55.076386 12.018731 33.030277c0.681522 2.006703 1.183965 4.02057 1.506307 6.025227 0.319272 2.009773 0.651846 4.181229 0.992607 6.507204 0.342808 2.323928 0.51063 4.824889 0.51063 7.495718C959.810049 618.613412 958.143083 625.617943 954.129676 632.304226zM693.958168 376.830717l-0.288572-0.288572c-7.877411-7.876388-20.648272-7.876388-28.52466 0l-35.55682 35.55682c-18.723434-13.600763-41.670052-21.724791-66.527183-21.724791-62.61406 0-113.548102 50.944276-113.548102 113.558335 0 62.623269 50.935066 113.568569 113.548102 113.568569s113.568569-50.944276 113.568569-113.568569c0-23.058159-6.952342-44.506656-18.810415-62.438051l36.140105-36.140105C701.834556 397.477966 701.834556 384.707105 693.958168 376.830717z"  horiz-adv-x="1024" />

    
    <glyph glyph-name="cha" unicode="&#58890;" d="M886.528-12.032c-28.096-28.096-73.856-28.096-102.016 0L138.304 634.176c-28.096 28.16-28.16 73.856 0 102.016 28.032 28.16 73.792 28.16 102.08 0l646.144-646.144C914.624 61.76 914.752 16.128 886.528-12.032L886.528-12.032zM885.76 634.496 239.616-11.648c-28.224-28.224-73.92-28.224-102.08 0-28.16 28.096-28.16 73.728 0.064 102.016L783.744 736.448c28.224 28.16 73.984 28.16 102.016 0.064C913.984 708.352 913.856 662.656 885.76 634.496L885.76 634.496z"  horiz-adv-x="1024" />

    
    <glyph glyph-name="baobiao" unicode="&#58964;" d="M832.012919 801.929508c-14.678304-3.25002-29.331026-6.622838-44.008306-9.880021-27.132964-6.021134-54.271044-12.017708-81.418334-17.972327-15.370059-3.373841-30.78105-6.573719-46.1419-9.985422-13.364379-2.968611-26.680663-6.126534-40.693818-9.358135 22.417569-21.664416 44.360324-42.872436 66.441225-64.212464-14.373359-15.196097-28.264741-29.904077-42.182728-44.588521-7.336082-7.741311-14.69263-15.465227-22.077831-23.160489-17.740036-18.476817-35.46063-36.973076-53.270251-55.384401-14.490016-14.979156-29.098735-29.843702-43.652196-44.760436-0.623193-0.63752-1.216711-1.301645-1.828648-1.948375-8.165983-8.616238-16.334014-17.2335-24.725124-26.087145-31.022551 28.303626-61.489446 56.100716-92.359524 84.268242-11.526521-12.047384-23.045879-24.166399-34.651194-36.199457-12.237719-12.68695-24.558325-25.294083-36.842093-37.938054-11.910261-12.261255-23.813359-24.523533-35.723619-36.784788-12.407588-12.769838-24.823362-25.53456-37.225833-38.310537-11.535731-11.876492-23.010063-23.810289-34.599006-35.635615-21.084201-21.516036-42.259476-42.942021-63.335491-64.46829-9.212826-9.403161-18.283412-18.945491-27.375487-28.464285-0.673335-0.704035-1.020236-1.721201-1.485841-2.536776 11.886725-11.390421 23.570835-22.520923 35.177174-33.731242 5.109368-4.934382 5.107321-5.074575 10.219759 0.207731 6.547113 6.767124 12.93459 13.688767 19.456121 20.478404 10.109242 10.526751 20.271696 20.998243 30.416753 31.490202 10.764158 11.130502 21.540595 22.248723 32.302707 33.383318 9.893324 10.237155 19.766183 20.491707 29.661553 30.726815 10.762111 11.132548 21.4925 22.298865 32.317033 33.373085 18.812461 19.240203 37.686321 38.422078 56.535621 57.629535 0.62524 0.638543 1.257643 1.2689 1.871627 1.915629 8.495488 8.986675 16.989953 17.97335 25.341155 26.809599 31.712259-28.323069 62.815651-56.105832 94.433766-84.342943 8.413624 8.945743 16.382109 17.514909 24.458041 25.986861 15.950274 16.733103 31.956829 33.410947 47.941895 50.106188 16.234753 16.95516 32.472576 33.905204 48.707328 50.859341 15.988136 16.694217 31.918967 33.444716 47.974641 50.075489 14.224979 14.736633 28.630061 29.303396 42.86732 44.030819 4.26821 4.412496 8.238638 9.109472 12.56927 13.923104 24.399713-23.01825 48.229444-45.49824 72.64246-68.529793 1.336438 7.110955 2.520403 13.071713 3.564175 19.058055 2.707668 15.528672 5.326309 31.072693 8.033977 46.601364 2.285043 13.107529 4.691859 26.192545 6.968715 39.300075 2.667759 15.359826 5.230118 30.737048 7.880481 46.098921 2.709715 15.699564 5.395894 31.403221 8.245801 47.079248 1.25969 6.933923 2.888793 13.802354 4.352121 20.700461 0 0.357134 0 0.714268 0 1.071402C836.532863 802.535305 834.231447 802.420695 832.012919 801.929508zM712.8264-0.412137c32.260751 0 64.178695 0 96.495728 0 0 165.071569 0 329.72256 0 494.169913-32.485879 0-64.530712 0-96.495728 0C712.8264 328.828446 712.8264 164.305369 712.8264-0.412137zM538.228873-0.260687c32.42755 0 64.47136 0 96.704482 0 0 127.959324 0 255.576863 0 383.626237-32.556487 0-64.726164 0-96.704482 0C538.228873 255.184169 538.228873 127.44281 538.228873-0.260687zM358.281501-0.216685c32.473599 0 64.514339 0 96.517217 0 0 102.062514 0 203.734124 0 305.606303-32.249495 0-64.163345 0-96.517217 0C358.281501 203.205331 358.281501 101.410923 358.281501-0.216685zM197.580472-0.212592c32.477692 0 64.520479 0 96.504938 0 0 69.924559 0 139.457192 0 209.1863-32.255635 0-64.168462 0-96.504938 0C197.580472 138.913049 197.580472 69.254549 197.580472-0.212592z"  horiz-adv-x="1024" />

    
    <glyph glyph-name="zititubiao-68" unicode="&#59014;" d="M926.976 599.424l-475.2-518.4c-11.724-12.75-28.411-20.778-46.976-21.003l-0.768 0.011c-0.012-0-0.027-0-0.041-0-17.887 0-34.078 7.265-45.781 19.006l-259.202 259.202c-11.727 11.727-18.981 27.929-18.981 45.824 0 35.791 29.014 64.805 64.805 64.805 17.895 0 34.097-7.254 45.824-18.981l211.328-211.328 429.44 468.544c11.893 12.929 28.892 21.002 47.776 21.002 35.811 0 64.842-29.031 64.842-64.842 0-16.927-6.486-32.339-17.108-43.886z"  horiz-adv-x="1024" />

    
    <glyph glyph-name="shouye-copy" unicode="&#58891;" d="M879.461 378.762l-366.588 336.911-368.334-335.167c-6.983-6.983-6.983-17.457 0-24.441s17.457-6.983 24.441 0l343.894 314.219 343.894-314.219c3.492-3.492 6.983-5.238 12.219-5.238s8.726 1.745 12.219 5.238c5.238 5.238 5.238 15.712-1.745 22.695zM767.739 371.781c-10.474 0-17.457-6.983-17.457-17.457v-267.084h-143.143v186.784h-190.277v-186.784h-143.143v267.084c0 10.474-8.726 17.457-17.457 17.457-10.474 0-17.457-6.983-17.457-17.457v-301.997h214.715v186.784h118.704v-186.784h214.715v301.997c-1.745 10.474-8.726 17.457-19.202 17.457zM642.051 621.409h106.484v-92.519c0-10.474 8.726-17.457 17.457-17.457 10.474 0 17.457 6.983 17.457 17.457v127.433h-143.143c-10.474 0-17.457-6.983-17.457-17.457 1.745-8.726 10.474-17.457 19.202-17.457z"  horiz-adv-x="1024" />

    
    <glyph glyph-name="zuoyoujiantou" unicode="&#58897;" d="M742.7584 808.6016L706.56 844.8 256 394.24l450.56-450.56 36.1984 36.1984L328.3968 394.24z"  horiz-adv-x="1024" />

    
    <glyph glyph-name="guize" unicode="&#58946;" d="M512 853.674C252.606 853.674 42.326 643.394 42.326 384S252.606-85.674 512-85.674 981.674 124.606 981.674 384 771.394 853.674 512 853.674z m0-887.7C281.13-34.027 93.972 153.13 93.972 384 93.972 614.871 281.13 802.028 512 802.028c230.87 0 418.028-187.158 418.028-418.028 0-230.87-187.158-418.027-418.028-418.027zM528.224 662c-51.99 0-92.997-16.11-123.02-48.33C376.645 582.915 362 541.908 362 490.65h58.581c0 35.88 8.055 63.707 23.433 84.21 18.306 24.165 45.4 35.881 81.281 35.881 30.755 0 54.92-8.055 72.494-25.629 16.11-16.11 24.165-38.81 24.165-68.1 0-20.504-7.322-39.543-21.235-57.85-5.126-5.858-13.181-14.645-24.897-26.361-39.543-35.149-64.44-62.975-73.96-84.943-9.519-18.307-13.912-39.542-13.912-63.707v-16.842h59.313V284.15c0 19.771 4.394 38.078 13.913 54.188 7.323 13.18 18.307 26.361 33.684 39.542 32.22 28.558 52.724 47.597 60.046 56.384C672.481 458.43 682 486.99 682 519.941c0 43.935-13.913 78.352-41.007 103.249C613.167 649.55 575.09 662 528.224 662z m-10.251-445.95c-13.181 0-23.433-3.661-31.488-12.448-8.787-8.055-13.18-18.307-13.18-30.755 0-12.449 4.393-22.7 13.18-31.488 8.055-8.055 18.307-12.448 31.488-12.448 11.716 0 22.7 4.393 31.487 12.448 8.055 8.055 12.448 18.307 12.448 31.488 0 12.448-4.393 22.7-12.448 30.755-8.787 8.787-19.039 12.448-31.487 12.448z"  horiz-adv-x="1024" />

    
    <glyph glyph-name="lishirenwu" unicode="&#58917;" d="M695.91 594.31c-180.91 0-328.09-147.179-328.09-328.09S515-61.87 695.91-61.87 1024 85.31 1024 266.22 876.821 594.31 695.91 594.31z m0-577.438c-137.49 0-249.348 111.858-249.348 249.348S558.42 515.57 695.91 515.57 945.26 403.71 945.26 266.22 833.4 16.872 695.91 16.872zM39.371 121.195C17.622 121.195 0 103.56 0 81.824c0-21.737 17.622-39.372 39.371-39.372H343.75c-15.674 24.615-28.715 50.981-39.014 78.742H39.371z m0 629.932h841.064c21.75 0 39.371 17.635 39.371 39.371s-17.622 39.371-39.37 39.371H39.37C17.622 829.87 0 812.234 0 790.5c0-21.736 17.622-39.372 39.371-39.372z m0-472.45h239.594c0.798 26.965 3.99 53.294 9.668 78.742H39.371C17.622 357.419 0 339.784 0 318.048s17.622-39.37 39.371-39.37z m397.892 314.967H39.371C17.622 593.644 0 576.01 0 554.274s17.622-39.372 39.371-39.372h321.663c21.917 29.462 47.452 55.978 76.23 78.742zM811.395 304.72h-76.114V409.71c0 21.735-17.623 39.37-39.371 39.37s-39.372-17.635-39.372-39.37v-144.36c0-21.737 17.623-39.372 39.372-39.372h115.485c21.748 0 39.37 17.635 39.37 39.371s-17.62 39.371-39.37 39.371z"  horiz-adv-x="1024" />

    
    <glyph glyph-name="zuoyoujiantou1" unicode="&#58881;" d="M281.241-40.602l36.198-36.198 450.56 450.56-450.56 450.56-36.198-36.198 414.362-414.362z"  horiz-adv-x="1024" />

    
    <glyph glyph-name="gengduo" unicode="&#58880;" d="M920.713 860.02H619.562c-37.723 0-68.412-30.979-68.412-69.058v-370.024h369.563c37.751 0 68.463 30.98 68.463 69.059V790.962c0 38.079-30.713 69.058-68.463 69.058z m16.094-370.023c0-9.204-7.221-16.69-16.094-16.69H603.519V790.963c0 9.203 7.198 16.689 16.043 16.689h301.15c8.874 0 16.094-7.487 16.094-16.689v-300.965zM36.195 790.963v-300.965c0-38.08 30.712-69.059 68.463-69.059h369.563V790.963c0 38.079-30.689 69.058-68.412 69.058H104.658c-37.75 0-68.463-30.979-68.463-69.058z m52.369 0c0 9.203 7.221 16.689 16.094 16.689h301.151c8.846 0 16.043-7.487 16.043-16.689v-317.656H104.658c-8.874 0-16.094 7.488-16.094 16.69V790.962zM989.177-23.869V277.096c0 38.08-30.712 69.059-68.463 69.059H551.151v-370.024c0-38.079 30.689-69.058 68.412-69.058h301.15c37.751-0.001 68.465 30.978 68.465 69.058z m-52.37 0c0-9.203-7.221-16.689-16.094-16.689H619.562c-8.846 0-16.043 7.487-16.043 16.689V293.787h317.193c8.874 0 16.094-7.488 16.094-16.69v-300.965zM104.658-92.927h301.151c37.723 0 68.412 30.979 68.412 69.058V346.156H104.658c-37.751 0-68.463-30.98-68.463-69.059v-300.965c0-38.08 30.713-69.059 68.463-69.059zM88.564 277.097c0 9.204 7.221 16.69 16.094 16.69h317.193v-317.656c0-9.203-7.198-16.689-16.043-16.689h-301.15c-8.874 0-16.094 7.487-16.094 16.689V277.096z"  horiz-adv-x="1025" />

    
    <glyph glyph-name="tuichu" unicode="&#58984;" d="M909.529 551.948c-21.731 51.38-52.836 97.518-92.45 137.131-11.715 11.716-30.711 11.716-42.426 0-11.716-11.716-11.716-30.711 0-42.427C844.81 576.496 883.447 483.217 883.447 384c0-99.217-38.638-192.495-108.794-262.652-70.157-70.157-163.436-108.795-262.652-108.795-99.219 0-192.497 38.638-262.653 108.795C179.19 191.505 140.553 284.783 140.553 384c0 99.217 38.638 192.496 108.795 262.653 11.716 11.716 11.716 30.711 0 42.427s-30.711 11.716-42.427 0c-39.613-39.614-70.719-85.751-92.45-137.131C91.965 498.738 80.553 442.232 80.553 384c0-58.231 11.412-114.737 33.918-167.947 21.731-51.38 52.837-97.518 92.45-137.131 39.613-39.614 85.751-70.72 137.131-92.451 53.211-22.507 109.717-33.918 167.949-33.918 58.231 0 114.737 11.411 167.947 33.918 51.38 21.731 97.518 52.837 137.131 92.451 39.614 39.613 70.719 85.751 92.45 137.131 22.507 53.21 33.918 109.716 33.918 167.947 0 58.232-11.411 114.738-33.918 167.948zM512.001 354c16.568 0 30 13.432 30 30V785.447c0 16.568-13.432 30-30 30s-30-13.432-30-30V384c0-16.568 13.432-30 30-30z"  horiz-adv-x="1024" />

    
    <glyph glyph-name="gengduo2" unicode="&#59105;" d="M511.458671-122.780115c-68.614727 0-135.183865 13.441127-197.8583 39.949874-60.529585 25.602098-114.88761 62.250786-161.565722 108.927875S68.708871 127.132748 43.107797 187.663356c-26.508747 62.673411-39.949874 129.24255-39.949874 197.857277s13.441127 135.183865 39.949874 197.857277c25.602098 60.529585 62.250786 114.888634 108.927875 161.565722 46.677089 46.678112 101.036137 83.3268 161.565722 108.927875 62.674435 26.508747 129.24255 39.949874 197.8583 39.949874 68.614727 0 135.182842-13.441127 197.857277-39.949874 60.529585-25.602098 114.88761-62.250786 161.565723-108.927875 46.677089-46.677089 83.3268-101.036137 108.927874-161.565722 26.508747-62.673411 39.949874-129.24255 39.949874-197.857277s-13.441127-135.183865-39.949874-197.857277c-25.602098-60.529585-62.250786-114.88761-108.927874-161.565722s-101.035114-83.3268-161.565723-108.927875c-62.674435-26.50977-129.243573-39.949874-197.8583-39.949874z m0 992.042147c-65.310472 0-128.660288-12.788258-188.290387-38.009685-57.602929-24.363897-109.337197-59.245336-153.767106-103.675244-44.429909-44.429909-79.311347-96.164177-103.675244-153.767106C40.505529 514.180921 27.717272 450.830081 27.717272 385.520633s12.788258-128.660288 38.009685-188.289364c24.363897-57.602929 59.245336-109.337197 103.675244-153.767106 44.429909-44.429909 96.164177-79.311347 153.767106-103.674221 59.630099-25.221428 122.979916-38.010709 188.290387-38.010708 65.309448 0 128.659265 12.788258 188.290387 38.010708 57.601906 24.363897 109.336174 59.245336 153.766083 103.674221s79.311347 96.164177 103.675244 153.767106c25.220405 59.629075 38.009685 122.979916 38.009686 188.289364s-12.788258 128.660288-38.009686 188.290387c-24.364921 57.602929-59.245336 109.337197-103.675244 153.767106-44.429909 44.429909-96.164177 79.311347-153.766083 103.675244-59.631122 25.220405-122.980939 38.008662-188.29141 38.008662zM545.452903 419.563984l0.011256 272.227078c-0.002047 18.799158-15.276938 34.07405-34.029024 34.029024-18.801205 0-34.030048-15.229866-34.029024-34.029024l-0.011257-272.233218-272.242427-0.020466c-18.800181 0-34.029024-15.22782-34.029025-34.029025 0-18.801205 15.22782-34.028001 34.029025-34.029024l272.240381-0.010233-0.010233-272.219915c0-18.800181 15.228843-34.029024 34.030047-34.030048 18.775622-0.021489 34.026978 15.229866 34.029025 34.029025l0.010233 272.216845 272.289499-0.010233c18.752086 0.047072 34.004465 15.299451 34.051537 34.051537-0.024559 18.776645-15.300474 34.051537-34.075073 34.07405l-272.26494-0.016373z"  horiz-adv-x="1024" />

    
    <glyph glyph-name="touzhujilu" unicode="&#58905;" d="M825.074526 841.997474H198.871579c-57.640421 0-104.367158-47.373474-104.367158-105.714527v-704.646736c0-58.314105 46.726737-105.687579 104.367158-105.687579h626.364632c57.478737 0 104.394105 47.535158 104.205473 105.687579V736.282947c0 58.341053-46.726737 105.714526-104.367158 105.714527z m34.789053-810.199579c0-19.482947-15.521684-35.220211-34.789053-35.220211H198.871579a35.031579 35.031579 0 0 0-34.789053 35.220211V736.471579c0 19.321263 15.683368 35.220211 34.789053 35.22021h626.202947a35.031579 35.031579 0 0 0 34.789053-35.22021v-704.673684zM268.234105 347.944421h384c19.294316 0 34.816 15.737263 34.816 35.274105 0 19.482947-15.521684 35.220211-34.816 35.220211H268.234105c-19.240421 0-34.762105-15.737263-34.762105-35.220211 0-19.536842 15.521684-35.274105 34.762105-35.274105zM754.391579 208.357053H268.072421c-19.267368 0-34.816-15.737263-34.816-35.220211 0-19.536842 15.548632-35.274105 34.816-35.274105h486.319158c19.240421 0 34.789053 15.737263 34.789053 35.274105 0 19.482947-15.548632 35.220211-34.789053 35.220211zM233.472 611.651368a52.843789 52.197053 90 1 1 104.394105 0 52.843789 52.197053 90 1 1-104.394105 0ZM458.832842 611.651368a52.843789 52.197053 90 1 1 104.394105 0 52.843789 52.197053 90 1 1-104.394105 0ZM685.136842 611.651368a52.843789 52.224 90 1 1 104.448 0 52.843789 52.224 90 1 1-104.448 0Z"  horiz-adv-x="1024" />

    
    <glyph glyph-name="chongzhitikuan" unicode="&#58970;" d="M945.7664 505.2416c-6.5536 15.9744-24.1664 10.6496-33.9968-3.2768l-99.5328-120.832c-11.0592-13.9264-9.4208-22.528-4.5056-29.4912 5.7344-7.7824 18.432-6.9632 26.624-1.2288l64.3072 46.2848c4.096-99.5328-32.3584-212.992-125.3376-298.1888-143.7696-134.3488-373.5552-134.7584-519.3728-4.9152-27.8528 24.9856-51.6096 52.8384-70.4512 82.7392-11.0592 17.2032-31.5392 27.0336-52.4288 13.1072-17.2032-13.9264-7.7824-31.9488-1.2288-43.008 25.3952-38.0928 43.008-61.44 76.5952-92.5696 175.7184-162.6112 451.3792-157.696 622.1824 10.24 89.2928 88.4736 133.9392 204.8 133.9392 320.7168 0.4096 1.2288-2.048 83.1488-16.7936 120.4224zM216.2688 422.5024c-6.5536 8.192-20.8896 8.6016-28.2624 0.8192l-63.0784-52.4288C121.6512 498.688 172.8512 591.2576 252.7232 671.1296c138.8544 133.12 380.1088 130.2528 523.0592-4.096 24.576-23.3472 45.056-46.6944 63.488-76.1856 11.0592-17.6128 28.672-25.8048 48.7424-15.1552 19.6608 13.9264 15.1552 32.3584 8.6016 43.008-19.6608 34.4064-44.6464 64.3072-78.2336 95.8464-172.032 159.744-456.2944 155.2384-623.4112-9.8304C105.2672 617.0624 60.6208 500.736 61.0304 384c0 0 2.048-83.968 15.5648-118.3744 6.144-15.9744 24.1664-13.9264 36.864 2.048l102.8096 130.6624c6.9632 7.7824 5.3248 17.6128 0 24.1664zM683.2128 613.376c-11.8784 11.8784-31.5392 11.8784-43.4176 0l-129.8432-129.8432L379.2896 613.376c-11.8784 12.288-31.1296 12.288-43.4176 0-11.8784-11.8784-11.8784-31.5392 0-43.4176l86.4256-86.8352H376.4224c-16.7936 0-30.72-13.9264-30.72-30.72s13.9264-30.72 30.72-30.72h102.4v-86.4256h-102.4c-16.7936 0-30.72-13.9264-30.72-30.72s13.9264-30.72 30.72-30.72h102.4V162.816c0-16.7936 13.9264-30.72 30.72-30.72s30.72 13.9264 30.72 30.72v111.0016h102.4c16.7936 0 30.72 13.9264 30.72 30.72s-13.9264 30.72-30.72 30.72h-102.4v86.4256h102.4c16.7936 0 30.72 13.9264 30.72 30.72s-13.9264 30.72-30.72 30.72h-45.8752l86.4256 86.8352c11.8784 11.8784 11.8784 31.5392 0 43.4176z"  horiz-adv-x="1024" />

    
    <glyph glyph-name="xiajiantou" unicode="&#58883;" d="M511.936 274.496l-278.4 279.68 45.376 45.12 232.704-233.792 231.616 236.032 45.632-44.8z"  horiz-adv-x="1024" />

    
    <glyph glyph-name="shangjiantou" unicode="&#58884;" d="M512.064 607.28l278.4-279.68-45.376-45.12-232.704 233.791-231.616-236.032-45.632 44.8z"  horiz-adv-x="1024" />

    
    <glyph glyph-name="qia" unicode="&#59206;" d="M766.314 219.428a18.52 18.52 0 0 1 18.538 18.538V570.264a18.52 18.52 0 0 1-18.538 18.536H291.604a18.52 18.52 0 0 1-18.538-18.536v-332.3a18.52 18.52 0 0 1 18.538-18.536h474.71zM512-128C229.23-128 0 101.23 0 384S229.23 896 512 896s512-229.23 512-512-229.23-512-512-512z m254.314 313.296H291.604c-29.104 0-52.67 23.568-52.67 52.67V570.264c0 29.1 23.566 52.67 52.67 52.67h474.71c29.102 0 52.67-23.568 52.67-52.67v-332.3c0-29.1-23.568-52.668-52.67-52.668z m-134.848 182.426h94.942a17.066 17.066 0 0 1 17.068 17.066v118.68a17.066 17.066 0 0 1-17.068 17.066h-94.94a17.066 17.066 0 0 1-17.068-17.068v-118.678a17.066 17.066 0 0 1 17.066-17.066z m77.876 34.134h-60.808V486.4h60.808v-84.544zM307.2 298.666h189.884a17.066 17.066 0 0 1 0 34.134H307.2a17.066 17.066 0 1 1 0-34.134z m0 68.268h94.942a17.066 17.066 0 1 1 0 34.132H307.2a17.066 17.066 0 1 1 0-34.132z m204.8-460.8c263.92 0 477.866 213.948 477.866 477.866C989.866 647.92 775.92 861.866 512 861.866 248.08 861.866 34.134 647.92 34.134 384c0-263.92 213.948-477.866 477.866-477.866z"  horiz-adv-x="1024" />

    
    <glyph glyph-name="yuanxinggouwuche" unicode="&#58895;" d="M512.0439209374999 864C246.94864437499996 864 32 649.0952765625 32 384.02196s214.94864437500001-480.01098 480.04392093749993-480.01098 479.98902 214.89374343749998 479.98902 480.01098S777.1391975 864 512.0439209374999 864z m2.250943125-924.1166643749999c-244.03522781249998 0-441.86572125000004 197.8304925-441.8657203125 441.8657203125S270.27061625 823.6147771875001 514.2948640625 823.6147771875001 956.1496053125001 625.7842846875 956.1496053125001 381.7490559375 758.3300928125-60.11666437500003 514.2948640625-60.11666437500003zM412.4973125 470.8754428125v37.991536875H866.4302871875v-37.991536875z m0-94.956879375h397.187235v-38.013496875H412.4973125z m359.36040187500004-151.91124374999998v-37.980554999999995H412.4973125a94.75923562499999 94.75923562499999 0 0 0-94.5725728125 94.956879375l-66.75969375 284.8596590625h-84.5476378125v37.9695759375h113.9306878125l75.203476875-322.818255a56.8555415625 56.8555415625 0 0 1 56.745739687500006-56.9763234375h359.36040187500004z m-378.26832843750003-75.9611109375a56.976324375 56.976324375 0 1 0-56.745739687500006-57.195928124999995v0.23058375a56.8555415625 56.8555415625 0 0 0 56.745739687500006 56.965344375z m-18.918906562500002-75.97209187499999h37.826833125v37.9915359375h-37.826833125z m321.5335696875 75.9611109375a56.976324375 56.976324375 0 1 0-56.7347596875-57.1849471875v0.23058375a56.8555415625 56.8555415625 0 0 0 56.7347596875 56.976324375z m-18.907926562500002-75.9611109375h37.826833125v37.9915359375h-37.826833125z"  horiz-adv-x="1024" />




  </font>
</defs>
</svg>
